<?xml version="1.0" encoding="UTF-8"?><svg id="Layer_2" xmlns="http://www.w3.org/2000/svg" viewBox="0 0 1864.5 900.89"><defs><style>.cls-1{fill:#1d75bc;}.cls-1,.cls-2,.cls-3{stroke-width:0px;}.cls-2{fill:#fff;}.cls-3{fill:#1c75bc;}</style></defs><g id="Layer_1-2"><rect class="cls-2" width="1864.5" height="900.89"/><path class="cls-1" d="M948.1,388.28c0-24-.46-27.65-14.86-28.8l-5.71-.46c-1.37-.91-.91-5.03.46-5.71,12.8.46,20.57.69,29.71.69s16.68-.23,28.11-.69c1.37.69,1.83,4.8.46,5.71l-5.49.46c-13.48,1.14-13.94,4.8-13.94,28.8v79.53c0,14.4.69,20.34,4.8,24.68,2.51,2.51,6.86,5.26,24.91,5.26,19.43,0,24.23-.91,27.88-2.97,4.57-2.74,10.51-10.97,15.08-22.63,1.37-1.14,5.71-.23,5.71,1.37,0,2.51-6.4,25.83-9.6,32-11.66-.46-33.37-.69-56.91-.69h-21.03c-9.6,0-16.91.23-29.71.69-1.37-.69-1.83-4.34-.46-5.71l6.86-.69c13.26-1.37,13.71-4.57,13.71-28.57v-82.28Z"/><path class="cls-1" d="M1067.63,439.24c0-8.91,0-10.06-6.17-14.17l-2.06-1.37c-.91-.91-.91-3.43.23-4.11,5.26-1.83,18.28-7.77,23.54-11.2,1.14,0,2.06.46,2.29,1.37-.46,8-.92,18.97-.92,28.34v41.14c0,16.46.46,18.74,8.69,19.88l4.8.69c1.6,1.14,1.14,5.03-.46,5.71-6.86-.46-13.48-.69-21.48-.69s-15.08.23-21.48.69c-1.6-.69-2.06-4.57-.46-5.71l4.8-.69c8.46-1.14,8.68-3.43,8.68-19.88v-40ZM1086.6,374.11c0,8.23-5.71,11.88-12.11,11.88-7.08,0-11.66-5.26-11.66-11.43,0-7.54,5.49-12.34,12.34-12.34s11.43,5.49,11.43,11.88Z"/><path class="cls-1" d="M1122.7,437.42c-3.43-8.46-5.49-15.77-13.71-16.91l-4.57-.69c-1.37-1.83-1.14-5.03.69-5.71,5.71.46,13.71.69,21.48.69,6.17,0,10.74-.23,18.51-.69,1.6.91,1.83,4.57.23,5.71l-2.74.46c-7.08,1.14-7.31,2.29-5.03,9.14,5.26,15.77,11.88,31.77,17.14,43.65,2.06,4.57,2.97,6.63,3.66,7.31.92-.69,2.51-3.89,4.34-8.69l13.03-33.6c3.2-8,4.11-12.8,4.11-14.17,0-2.06-1.37-2.97-4.11-3.43l-5.26-.69c-1.37-1.6-1.14-4.8.46-5.71,7.08.46,12.8.69,17.14.69,5.71,0,9.6-.23,16-.69,1.6.91,1.83,4.34.46,5.71l-3.43.46c-8,1.14-10.06,7.08-16.68,19.88-3.2,6.17-17.37,39.31-21.03,48.68-2.29,5.71-4.57,10.97-7.54,18.74-.46.69-1.37.91-2.29.91-1.14,0-2.29-.23-2.97-.91-1.83-6.4-5.26-15.31-8.68-23.77l-19.2-46.39Z"/><path class="cls-1" d="M1279.25,378.22c-5.26-12.8-8.68-17.6-18.51-18.74l-4.11-.46c-1.6-1.37-1.37-4.57.46-5.71,6.63.46,13.94.69,23.77.69s18.06-.23,27.65-.69c1.6.91,2.06,4.34.46,5.71l-3.43.46c-8.68,1.14-10.51,2.51-10.74,4.34.46,2.29,4.34,14.63,11.43,32,10.51,26.51,21.03,52.79,32.45,78.85,7.08-15.08,16.68-38.62,21.94-50.74,6.63-15.54,17.37-41.37,21.25-51.19,1.83-4.8,2.06-7.31,2.06-8.91s-2.29-3.43-10.28-4.34l-4.11-.46c-1.6-1.37-1.14-4.8.46-5.71,6.4.46,15.08.69,23.77.69,7.54,0,14.63-.23,22.17-.69,1.6.91,1.6,4.57.46,5.71l-6.86.46c-5.49.46-8.91,3.2-11.88,8-6.4,10.74-15.31,29.25-25.6,52.57l-12.34,28.11c-9.14,21.03-19.88,47.54-23.77,59.65-.69.46-1.6.69-2.51.69-1.14,0-2.29-.23-3.43-.69-2.51-9.6-6.63-20.8-10.51-30.4l-40.22-99.19Z"/><path class="cls-1" d="M1431.01,439.24c0-8.91,0-10.06-6.17-14.17l-2.06-1.37c-.91-.91-.91-3.43.23-4.11,5.26-1.83,18.28-7.77,23.54-11.2,1.14,0,2.06.46,2.29,1.37-.46,8-.91,18.97-.91,28.34v41.14c0,16.46.46,18.74,8.69,19.88l4.8.69c1.6,1.14,1.14,5.03-.46,5.71-6.86-.46-13.48-.69-21.48-.69s-15.08.23-21.48.69c-1.6-.69-2.06-4.57-.46-5.71l4.8-.69c8.46-1.14,8.68-3.43,8.68-19.88v-40ZM1449.98,374.11c0,8.23-5.71,11.88-12.11,11.88-7.08,0-11.66-5.26-11.66-11.43,0-7.54,5.49-12.34,12.34-12.34s11.43,5.49,11.43,11.88Z"/><path class="cls-1" d="M1487.46,375.94c0-13.48-.23-14.86-7.08-18.97l-2.29-1.37c-1.14-.69-1.14-3.89,0-4.57,5.71-1.83,16.46-5.26,24.68-9.6.91,0,1.83.46,2.29,1.37-.23,6.86-.69,18.28-.69,28.34v78.39c0,2.97.23,3.43,4.11,3.43,5.03,0,9.37-2.51,15.54-8.91l9.37-10.06c6.4-6.86,8-9.37,8-10.51s-1.14-1.83-5.03-2.29l-5.48-.69c-2.06-.69-2.06-5.03,0-5.71h5.26c10.06,0,23.54-.46,36.34-1.83,1.6.69,1.83,4.57.46,5.71l-7.31,1.37c-4.57.92-8.46,3.2-14.4,8-8.91,7.08-16.68,15.31-20.8,19.2-2.74,2.51-2.97,3.66-1.6,5.49,3.89,5.26,7.54,9.6,15.31,18.28,8.91,10.06,16.91,18.97,21.48,23.31,3.2,2.97,7.77,4.34,11.88,5.03l3.2.46c1.6,1.14,1.37,5.03-.46,5.71-6.63-.46-14.4-.69-21.71-.69-9.14,0-17.14.23-23.77.69-1.83-.91-2.06-4.8-.46-5.71l4.11-.69c3.43-.46,5.71-.91,5.71-2.29s-.91-2.97-3.88-6.4l-24.45-28.34c-2.06-2.29-4.57-3.2-7.08-3.2-4.11,0-4.34.69-4.34,7.77v12.57c0,16.46.46,18.74,8.68,19.88l5.49.69c1.6,1.14,1.14,5.03-.46,5.71-7.54-.46-14.17-.69-22.17-.69s-15.08.23-21.94.69c-1.6-.69-2.06-4.57-.23-5.71l5.03-.69c8.46-1.14,8.68-3.43,8.68-19.88v-103.3Z"/><path class="cls-1" d="M1631.67,457.53c3.43-1.14,3.89-3.2,3.89-6.63l.23-10.51c.23-8.46-2.51-19.88-16.68-19.88-6.4,0-14.17,3.2-14.63,10.29-.23,3.66-.46,6.4-2.29,7.77-3.43,2.74-9.6,4.34-13.03,4.34-2.06,0-3.2-1.14-3.2-3.2,0-11.88,25.83-28.11,42.51-28.11s24.45,9.6,23.77,26.74l-1.37,39.77c-.46,10.51,1.6,19.88,10.51,19.88,2.29,0,4.34-.69,5.71-1.37,1.14-.69,2.29-1.6,2.97-1.6.91,0,1.6,1.37,1.6,2.97,0,1.14-8,10.06-19.2,10.06-5.49,0-10.97-2.06-14.86-7.08-.91-1.37-2.29-3.2-3.66-3.2-1.6,0-4.34,2.06-8.91,4.57-5.03,2.74-10.06,5.71-16.46,5.71s-12.11-1.83-16-5.26c-4.34-3.89-7.08-9.6-7.08-16,0-8.91,4.34-14.17,18.97-19.43l27.2-9.83ZM1617.5,497.75c4.57,0,11.66-3.43,13.94-5.71,2.74-2.74,2.74-5.94,2.97-10.74l.46-13.48c0-2.51-.91-2.97-2.29-2.97s-5.26.91-9.37,2.29c-13.48,4.57-20.11,8-20.11,16.91,0,3.89,2.74,13.71,14.4,13.71Z"/><path class="cls-1" d="M1692.23,439.24c0-8.91,0-10.06-6.17-14.17l-2.06-1.37c-.91-.91-.91-3.43.23-4.11,5.26-1.83,17.37-7.77,23.08-11.2,1.14.23,1.83.69,1.83,1.6v13.26c0,1.14.23,1.83.69,2.06,8-6.63,16.68-13.71,25.14-13.71,5.71,0,10.28,3.66,10.28,9.14,0,7.54-6.17,10.51-9.83,10.51-2.29,0-3.43-.69-5.03-1.6-3.43-2.29-6.86-3.66-10.06-3.66-3.66,0-6.4,2.06-8.23,4.57-2.29,3.2-2.97,9.83-2.97,17.6v31.08c0,16.46.46,19.2,9.14,19.88l8.23.69c1.6,1.14,1.14,5.03-.46,5.71-10.74-.46-17.37-.69-25.37-.69s-15.08.23-21.03.69c-1.6-.69-2.06-4.57-.46-5.71l4.34-.69c8.46-1.37,8.68-3.43,8.68-19.88v-40Z"/><path class="cls-3" d="M105.38,254.85c-1.36,1.23-1.53,2.82-1.66,4.37-.48,5.37-.77,10.76-1.46,16.12-3.66,28.39.98,56.16,10.53,83.62,6.21,17.86,12.13,35.78,18.11,53.68.37,1.09,1.12,2.56-1.51,3.08-3.85-1.71-4.87-4.81-6.26-7.62-3.66-7.42-7.16-14.85-11.32-22.15-8.97-15.76-22.26-29.29-35.97-42.7-1.04-1.01-2.11-2.05-3.4-2.86-1.39-.89-3.14-.96-4.76-.24-1.64.73-2.31,1.9-1.9,3.26.37,1.24,1.07,2.43,1.62,3.64,9.47,21.01,23.56,40.36,38.07,59.55,1.5,1.98,3.91,3.55,5.72,5.41,8.08,8.29,17.83,15.5,26.66,23.31,5.43,4.81,7.56,10.57,9.36,16.92-4.23-.71-6.6-2.37-9.12-4.16-6.98-4.95-12.53-10.74-18.15-16.51-10.28-10.55-23.4-19.32-33.41-30.04-1.75-1.88-4.03-3.49-6.15-5.15-1.16-.91-2.39-1.87-3.84-2.47-1.79-.74-3.97-1.25-5.64.15-1.2,1.01-1.34,2.43-.51,3.62,2.05,2.95,4.08,5.93,6.51,8.72,7.67,8.8,15.19,17.68,23.39,26.19,8.2,8.51,16.61,17.01,28.08,23.3,7.72,4.23,15.55,8.42,23.83,11.97,6.35,2.72,10.2,6.49,13.19,11.28,5.2,8.34,8.03,17.49,15.33,25.11.92.96,1.46,2.37-.63,3.37-4.35-.1-7.41-2.07-10.4-4.24-10.52-7.64-21.33-15.06-31.58-22.9-11.28-8.63-24.96-15.1-36.34-23.64-3.55-2.67-8.29-4.49-13.25-5.7-2.05-.5-4.11-.79-5.78.36-1.96,1.36-.62,2.89.37,4.16,1.73,2.21,3.52,4.43,5.66,6.42,10.32,9.58,21.21,18.85,33.94,26.6,14.48,8.82,27.29,19.59,45.87,24.06.89.21,1.63.92,2.32,1.47,3.54,2.86,8.11,4.56,12.47,6.57,7.73,3.56,15.58,7.01,18.79,14.29,1.8,4.07,5.47,7.67,8.28,11.49,1.73,2.35,4.02,4.53,4.83,7.96-5.2-.5-8.05-2.66-11.37-4.38-10.96-5.71-20.02-13.2-31.31-18.6-21.84-10.44-45.94-18.01-66.73-29.77-1.95-1.1-3.6-2.7-6.02-.76-2.34,1.87-.36,3.03,1.24,4.5,8.65,7.96,18.04,15.36,27.94,22.45,13.81,9.88,29.73,17.07,47.37,22.35,8.2,2.45,17.31,3.63,24.19,8.02,4.18,2.67,8.72,4.36,13.84,4.35,7.98-.01,12.33,3.19,15.64,8.02,1.08,1.58,2.77,2.93,4.06,4.44,4.71,5.5,9.37,11.02,14.05,16.53-16.65-6.4-30.92-15.05-47.98-20.19-16.96-5.1-33.74-10.52-50.91-15.9-1.94,4.56-2.04,7.71,4.39,10.43,7.67,3.25,14.27,7.9,21.54,11.72,23.76,12.46,49.59,21.33,78.39,24.79,4.02.48,7.16,1.63,9.24,4.22,4.77,5.98,11.17,11.03,16.67,16.58,2.1,2.12,5.34,3.87,5.61,6.87-3.44,1.1-5.44-.12-7.68-1.49-9.55-5.87-20.28-10.1-31.73-13.65-16.49-5.12-33.85-8.05-50.63-12.38-4.26-1.1-10.21-3.78-12.87.03-2.38,3.41,3.18,6.23,6.68,8.62,19.34,13.18,43.24,19.49,67.86,23.87,10.98,1.95,22.48,4.5,34.29,2.59,3.25-.53,5.84.94,8.18,2.59,6.22,4.38,12.61,8.63,18.69,13.12,1.39,1.02,4.42,1.81,2.9,4.35-5.14-.15-10.12-.75-15.06-1.79-15.85-3.33-32.25-4.07-48.45-5.79-4.57-.48-8.72.97-13.08,1.43-4.09.43-3.93,2.61-2.03,4.5,1.38,1.37,3.44,2.64,5.56,3.27,15.84,4.73,31.68,9.84,48.7,11.3,11.68,1.01,23.95,2.26,34.88-3.05,3.28-1.59,5.68-.56,8.14,1.18,6.22,4.39,12.6,8.66,18.82,13.06,1.31.93,3.44,1.85,1.82,3.89-20.56-1.94-41.23-3.16-62.02-1.52-2.53.2-6.22-1.3-6.96,1.48-.72,2.67,3.52,3.3,5.66,4.75.46.31,1.31.27,1.94.46,23.68,7.14,47.79,10.12,72.82,4.33,1.35-.31,2.74-.56,3.92.07,6.72,3.59,13.3,7.29,17.47,12.89-10.44-1.58-20.55-2.2-30.76-2.28-5.79-.05-10.74,1.61-15.21,4-3.49,1.86-2.79,4.8,1.2,5.89,2.54.69,5.27,1.05,7.96,1.36,16.1,1.84,32.14,5.09,48.38.25,5.1-1.52,8.13.5,10.14,5.55-8.34-2.56-14.3.91-20.93,1.79-2.41.32-4.68,1.38-4.63,3.53.05,2.4,2.87,2.72,5.18,2.87,9.5.6,19.18,2.07,28.49,1.24,8.66-.77,15.17.9,21.84,4.38,7,3.65,14.27,7.01,21.53,10.37,22.36,10.34,44.75,20.66,67.19,30.9,2.89,1.32,6.05,2.49,9.3,3.1,3.44.64,6.56-2.23,4.61-4.24-3.74-3.85-5.24-8.81-11.25-11.6-6.97-3.23-13.44-7.09-21.11-9.42-26.04-7.94-49.79-19.11-74.05-29.56-2.51-1.08-4.8-2.21-4.44-4.64,1.66-11.21-2.63-21.81-6.02-32.45-2.38-7.48-6.06-14.71-11.16-21.47-1.03-1.37-1.87-2.96-4.27-2.88-3.19.1-3.15,2.33-3.88,3.94-.32.71-.37,1.52-.32,2.28.56,8.18.52,16.4,3.38,24.42,2.05,5.75,3.74,11.56,5.63,17.45-2.47.1-3.79-.42-4.39-1.34-4.88-7.44-7.64-15.35-7.76-23.62-.09-5.95-.84-11.66-3.81-17.25-3.66-6.91-7.14-13.87-9.24-21.19-.78-2.73-2.43-5.34-3.89-7.93-.79-1.39-1.93-3.02-4.42-2.54-2.46.47-2.23,2.27-2.34,3.8-.7,10.08,1.18,19.97,4.23,29.73,2.83,9.06,5.36,18.19,10.2,26.98-4.78-2.08-8.52-4.61-12.48-6.92-6.73-3.91-9.81-8.94-9.45-15.34.4-7.21-.74-14.36-2.44-21.44-2.3-9.59-4.33-19.24-7.5-28.66-2.67-7.94-6.73-15.61-10.36-23.36-.78-1.66-2.26-3.54-5.07-3.25-3.23.34-2.71,2.58-2.71,4.31.02,22.17,2.66,44.04,12.95,65.06.69,1.42,3.1,2.89.74,4.83-7.98-3.81-13.82-9.24-20.75-13.72-2.61-1.69-3.48-3.47-2.27-6.09,1.47-3.17,1.32-6.58.96-9.91-2.27-21.02-7.73-41.62-14.79-62-.59-1.72-1.71-3.35-2.77-4.95-.6-.9-1.55-1.72-3.12-1.69-2.17.04-3.04,1.33-3.14,2.55-.31,3.57-.48,7.16-.34,10.73.66,17.62-1.96,35.43,5.01,52.73.22.54-.57,1.3-1.12,2.43-5.36-2.37-9.86-5.25-13.14-8.67-3.07-3.2-6.53-7.08-5.38-11.23,1.28-4.64.41-9.2.98-13.73,2.68-21.21-5.82-41.14-11.58-61.39-.92-3.23-3.4-4.73-8.3-4.88-2.37,9.5-4.66,18.72-3.41,28.29,1.56,12.02,4.11,23.91,7.24,35.74.75,2.84,2.42,5.67.25,9.14-11.71-7.95-19.15-16.55-17.03-28.44.86-4.83,1.36-9.69,2.02-14.54,1.9-14.05,3.91-28.12,1.7-42.23-1.12-7.11-2.86-14.2-6.45-20.9-.75-1.39-1.97-2.84-4.46-2.67-2.81.19-4.14,1.6-4.47,3.58-.56,3.31-.8,6.65-1.59,9.93-4.72,19.39-3.84,38.73.68,58.05.39,1.67,1.03,3.61-1.98,5.01-7.65-6.55-13.3-14.15-19.84-21.27-2.56-2.78-2.65-5.67.77-8.41,2.39-1.92,3.12-4.48,3.88-7.02,4.29-14.26,6.22-28.72,6.65-43.3.37-12.38-3.25-24.44-5.64-36.59-.28-1.41-1.29-2.34-3.36-2.31-1.48.02-2.69.54-3.31,1.51-.59.91-.94,1.93-1.22,2.92-3.5,12.8-7.36,25.55-10.3,38.43-2.13,9.33-3.45,18.8-2.69,28.33.11,1.37,1.43,3.06-1.56,3.83-5.08-3.88-8.88-8.3-11.73-13.36-1.8-3.21-2.26-5.77-1.18-9.36,2.18-7.25,4.73-14.4,7.49-21.52,4.72-12.17,5.38-24.77,6.3-37.29.7-9.46.36-18.97.1-28.46-.08-2.96-.05-7.08-4.73-7.83-5.65-.91-5.51,3.58-7.02,6.22-3.28,5.75-4.36,12.18-9.67,17.37.99-5.82,2.47-11.54,4.32-17.2,4.49-13.77,6.41-27.73,5.98-41.88-.04-1.27-.38-2.56-.8-3.8-.55-1.65-2-2.75-4.37-2.63-1.98.1-2.64,1.36-3.24,2.61-11.86,24.94-24.46,49.99-25.53,77.11-7.07-3.8-6.99-11.62-5.61-18.07,2.97-13.86,12.09-26.34,15.43-39.82,3.23-13,4.86-27.42,4.87-40.7,0-8.45-.61-16.89-.81-25.34-.05-2.07.05-4.13-1.04-6.06-1.58-2.8-4.41-3.18-6.98-.77-2.34,2.2-4.33,4.63-5.43,7.38-2.27,5.65-4.46,11.32-6.73,16.97-8.66,21.49-9.79,45.26-13.28,67.79-3.53-1.16-5.68-3.99-6.31-6.85-.62-2.86.03-5.78.68-8.63-.11-15.81,7.68-33.7,11.24-49.32,3.57-15.65,2.28-30.93,2.34-46.74,0-1.27-.42-2.54-.67-3.81-.27-1.39-1.22-2.49-3.11-2.67-1.78-.17-3.49.43-4.26,1.69-1.14,1.85-2.26,3.76-2.87,5.73-1.39,4.5-3.24,8.88-4.95,13.31-9.38,24.36-9.33,45.08-6.93,70.22-1.09-11.4-7.97-22.62-8.75-34.45-.77-11.75,1.38-22.71-.2-34.45-1.65-12.25-3.49-24.5-7.23-36.51-3.04-9.73-6.56-19.37-8.37-29.3-.47-2.59-1.71-4.97-3.79-7.07-1.99-2-4.09-1.46-5.88.17ZM210.25,478.56c1.11,1.19-.09,2.27-.31,3.38-.73.07-1.7.27-1.77.16-.72-1.17-.59-2.36.48-3.37.26-.24,1.44-.32,1.59-.16ZM191.63,478.63c.14,7.08-.71,14.18-1.15,21.75-9.55-6.4-12.27-13.88-8.16-21.71,2.99-5.69,6.59-11.19,8.17-17.27.44-1.67,1.27-3.51,4.81-4.53-.72,7.52-3.82,14.49-3.67,21.77ZM152.06,432.46c.98,1.14.78,2.37-.12,3.57-1.88-.77-1.87-2-1.41-3.27.23-.63,1.09-.81,1.53-.3Z"/><path class="cls-3" d="M838.9,254.67c-2.03,2.1-3.2,4.49-3.6,7.08-1.55,9.93-4.83,19.59-7.61,29.34-3.43,12.02-4.95,24.29-6.27,36.54-1.27,11.74,1.16,22.69.7,34.45-.47,11.83-7.06,23.09-7.84,34.49,1.74-25.16,1.25-45.89-8.77-70.21-1.82-4.42-3.78-8.8-5.29-13.29-.66-1.97-1.83-3.88-3.02-5.72-.81-1.25-2.53-1.85-4.31-1.67-1.88.19-2.8,1.3-3.04,2.69-.22,1.27-.61,2.54-.57,3.82.47,15.81-.41,31.1,3.56,46.74,3.97,15.61,12.21,33.47,12.52,49.29.73,2.85,1.45,5.77.9,8.63-.55,2.86-2.62,5.71-6.12,6.88-4.07-22.52-5.83-46.29-15.05-67.76-2.42-5.64-4.76-11.3-7.17-16.95-1.17-2.74-3.23-5.17-5.62-7.36-2.63-2.41-5.45-2.02-6.95.79-1.04,1.94-.89,3.99-.88,6.06.02,8.45-.38,16.9-.15,25.35.36,13.28,2.37,27.7,5.93,40.69,3.7,13.48,13.14,25.92,16.47,39.77,1.55,6.44,1.83,14.27-5.14,18.09-1.78-27.13-15.03-52.13-27.53-77.03-.63-1.25-1.32-2.51-3.3-2.6-2.38-.11-3.79.99-4.3,2.64-.38,1.24-.69,2.53-.7,3.8-.06,14.16,2.22,28.11,7.07,41.87,1.99,5.65,3.62,11.36,4.76,17.18-5.44-5.17-6.69-11.6-10.12-17.34-1.58-2.64-1.55-7.13-7.18-6.2-4.66.77-4.52,4.88-4.53,7.85-.02,9.49-.11,19,.84,28.46,1.25,12.52,2.24,25.12,7.27,37.28,2.95,7.12,5.68,14.26,8.05,21.5,1.17,3.59.78,6.16-.94,9.37-2.71,5.08-6.4,9.51-11.38,13.41-3.01-.76-1.73-2.46-1.66-3.82.51-9.54-1.05-19-3.43-28.33-3.28-12.86-7.47-25.61-11.3-38.4-.3-1-.68-2.01-1.29-2.92-.65-.96-1.87-1.48-3.35-1.5-2.07-.02-3.05.91-3.29,2.33-2.07,12.16-5.37,24.24-4.68,36.62.81,14.58,3.12,29.04,7.78,43.29.83,2.53,1.62,5.1,4.06,7.01,3.49,2.72,3.47,5.61.99,8.41-6.35,7.14-11.8,14.77-19.28,21.35-3.04-1.39-2.45-3.34-2.11-5.01,4.01-19.35,4.39-38.69-.84-58.07-.88-3.27-1.21-6.62-1.85-9.92-.38-1.98-1.75-3.39-4.56-3.56-2.5-.16-3.68,1.29-4.39,2.69-3.42,6.72-4.98,13.82-5.91,20.93-1.85,14.12.53,28.19,2.8,42.23.78,4.85,1.41,9.71,2.4,14.54,2.43,11.89-4.79,20.51-16.28,28.51-2.26-3.46-.66-6.3.01-9.14,2.82-11.85,5.05-23.75,6.3-35.78.99-9.58-1.54-18.8-4.15-28.29-4.9.17-7.34,1.68-8.17,4.91-5.24,20.28-13.21,40.24-9.98,61.45.69,4.52-.07,9.09,1.34,13.73,1.26,4.15-2.1,8.04-5.09,11.26-3.19,3.44-7.62,6.34-12.91,8.72-.58-1.13-1.38-1.89-1.18-2.43,6.52-17.33,3.43-35.13,3.64-52.76.04-3.57-.22-7.16-.62-10.73-.14-1.23-1.04-2.51-3.21-2.54-1.57-.02-2.5.8-3.07,1.71-1.02,1.61-2.09,3.24-2.64,4.96-6.52,20.41-11.44,41.04-13.16,62.07-.27,3.34-.33,6.74,1.22,9.91,1.28,2.62.46,4.41-2.11,6.1-6.81,4.51-12.51,9.96-20.39,13.8-2.41-1.94-.04-3.42.61-4.84,9.74-21.07,11.81-42.95,11.25-65.13-.04-1.73.41-3.97-2.82-4.3-2.81-.28-4.25,1.6-4.98,3.27-3.43,7.76-7.28,15.45-9.74,23.4-2.92,9.44-4.7,19.1-6.75,28.7-1.51,7.09-2.47,14.25-1.88,21.45.53,6.4-2.42,11.44-9.05,15.38-3.9,2.32-7.57,4.86-12.3,6.96,4.61-8.81,6.9-17.96,9.49-27.03,2.8-9.77,4.42-19.67,3.45-29.75-.15-1.54.03-3.33-2.44-3.8-2.51-.47-3.6,1.16-4.35,2.56-1.39,2.6-2.97,5.22-3.69,7.95-1.91,7.33-5.2,14.31-8.69,21.23-2.82,5.6-3.42,11.31-3.36,17.26.09,8.27-2.46,16.19-7.14,23.65-.58.92-1.88,1.44-4.35,1.35,1.73-5.89,3.27-11.72,5.17-17.47,2.65-8.03,2.39-16.25,2.74-24.44.03-.76-.04-1.57-.38-2.28-.77-1.61-.78-3.85-3.98-3.93-2.41-.06-3.2,1.53-4.19,2.9-4.92,6.78-8.41,14.02-10.6,21.51-3.11,10.65-7.13,21.28-5.18,32.48.42,2.43-1.84,3.57-4.32,4.66-23.98,10.54-47.42,21.81-73.25,29.84-7.6,2.37-13.97,6.24-20.85,9.5-5.94,2.82-7.31,7.78-10.94,11.65-1.91,2.03,1.29,4.89,4.72,4.23,3.23-.62,6.37-1.81,9.22-3.13,22.17-10.33,44.28-20.73,66.36-31.16,7.17-3.39,14.35-6.78,21.26-10.46,6.57-3.5,13.04-5.2,21.71-4.46,9.32.79,18.96-.71,28.45-1.35,2.3-.15,5.11-.49,5.1-2.89,0-2.15-2.3-3.2-4.72-3.51-6.65-.85-12.7-4.3-20.97-1.71,1.88-5.06,4.85-7.09,9.99-5.59,16.36,4.78,32.31,1.47,48.36-.43,2.68-.32,5.41-.68,7.92-1.39,3.96-1.11,4.58-4.05,1.05-5.9-4.53-2.37-9.52-4.01-15.31-3.94-10.21.12-20.29.77-30.69,2.39,4.02-5.61,10.5-9.35,17.13-12.96,1.17-.64,2.57-.39,3.92-.09,25.18,5.69,49.2,2.63,72.69-4.61.63-.19,1.48-.15,1.92-.46,2.11-1.46,6.32-2.1,5.54-4.77-.82-2.78-4.47-1.27-7-1.46-20.82-1.56-41.46-.26-61.96,1.76-1.67-2.04.43-2.97,1.72-3.9,6.1-4.43,12.36-8.72,18.47-13.14,2.42-1.75,4.79-2.79,8.11-1.21,11.06,5.28,23.29,3.97,34.95,2.92,16.98-1.53,32.68-6.7,48.39-11.49,2.1-.64,4.13-1.91,5.47-3.29,1.85-1.9,1.95-4.08-2.15-4.49-4.37-.44-8.56-1.88-13.11-1.38-16.14,1.78-32.53,2.58-48.28,5.98-4.91,1.06-9.87,1.68-15.01,1.84-1.58-2.53,1.42-3.33,2.78-4.36,5.96-4.51,12.24-8.78,18.34-13.19,2.29-1.66,4.84-3.14,8.11-2.62,11.86,1.87,23.29-.73,34.21-2.72,24.5-4.47,48.22-10.87,67.21-24.13,3.44-2.4,8.92-5.24,6.45-8.65-2.76-3.81-8.64-1.1-12.87.02-16.67,4.4-33.94,7.4-50.29,12.58-11.35,3.6-21.97,7.87-31.37,13.78-2.2,1.38-4.16,2.62-7.63,1.52.2-3,3.38-4.76,5.43-6.89,5.36-5.58,11.62-10.65,16.24-16.65,2-2.6,5.12-3.76,9.12-4.26,28.7-3.57,54.29-12.54,77.72-25.09,7.17-3.84,13.65-8.52,21.23-11.8,6.35-2.75,6.17-5.89,4.11-10.45-17.02,5.44-33.66,10.93-50.48,16.1-16.93,5.2-30.96,13.91-47.44,20.37,4.53-5.53,9.05-11.07,13.61-16.59,1.25-1.51,2.9-2.87,3.94-4.45,3.18-4.84,7.46-8.06,15.43-8.08,5.12-.01,9.61-1.71,13.72-4.4,6.77-4.42,15.84-5.64,23.98-8.12,17.5-5.34,33.23-12.59,46.77-22.53,9.71-7.13,18.91-14.57,27.35-22.56,1.56-1.48,3.51-2.64,1.12-4.5-2.48-1.93-4.08-.32-6,.79-20.47,11.84-44.37,19.5-65.93,30.03-11.14,5.44-20.01,12.97-30.82,18.72-3.27,1.74-6.06,3.91-11.25,4.43.72-3.43,2.96-5.62,4.63-7.98,2.71-3.83,6.29-7.44,7.98-11.52,3.02-7.29,10.78-10.77,18.41-14.36,4.31-2.03,8.83-3.74,12.29-6.62.67-.56,1.39-1.27,2.28-1.48,18.46-4.54,30.98-15.37,45.23-24.24,12.52-7.8,23.17-17.11,33.23-26.73,2.09-1.99,3.82-4.22,5.49-6.44.96-1.27,2.26-2.8.26-4.16-1.69-1.15-3.75-.85-5.78-.34-4.92,1.23-9.61,3.07-13.09,5.75-11.15,8.58-24.66,15.11-35.71,23.78-10.04,7.88-20.65,15.34-30.97,23.02-2.93,2.18-5.94,4.17-10.29,4.28-2.11-.99-1.61-2.41-.71-3.37,7.09-7.66,9.69-16.82,14.67-25.18,2.86-4.8,6.62-8.59,12.89-11.33,8.18-3.58,15.9-7.8,23.5-12.06,11.3-6.33,19.49-14.87,27.46-23.41,7.98-8.54,15.26-17.46,22.7-26.29,2.35-2.79,4.3-5.78,6.28-8.74.8-1.19.62-2.61-.6-3.62-1.7-1.4-3.87-.88-5.64-.13-1.43.6-2.63,1.57-3.77,2.48-2.08,1.67-4.32,3.29-6.02,5.18-9.73,10.77-22.62,19.59-32.62,30.18-5.47,5.79-10.86,11.61-17.71,16.59-2.48,1.8-4.8,3.47-9.01,4.2,1.64-6.36,3.61-12.13,8.92-16.96,8.62-7.84,18.18-15.09,26.04-23.41,1.76-1.87,4.13-3.45,5.58-5.44,14-19.25,27.58-38.65,36.5-59.7.52-1.22,1.19-2.41,1.52-3.65.37-1.36-.33-2.53-1.99-3.25-1.64-.71-3.39-.63-4.76.26-1.27.82-2.31,1.86-3.32,2.88-13.35,13.47-26.29,27.05-34.85,42.85-3.97,7.32-7.27,14.77-10.74,22.2-1.31,2.81-2.26,5.91-6.06,7.64-2.64-.51-1.93-1.98-1.59-3.07,5.51-17.93,10.96-35.87,16.7-53.76,8.83-27.5,12.74-55.29,8.34-83.68-.83-5.36-1.25-10.74-1.88-16.12-.18-1.54-.39-3.13-1.78-4.36-1.83-1.62-3.94-2.16-5.88-.14ZM747.39,479.14c1.1,1.01,1.27,2.2.57,3.37-.07.11-1.04-.08-1.77-.15-.24-1.11-1.48-2.18-.4-3.38.15-.16,1.33-.08,1.59.16ZM760.17,457.22c3.57,1.01,4.45,2.85,4.93,4.51,1.74,6.08,5.48,11.57,8.62,17.25,4.31,7.81,1.79,15.31-7.59,21.75-.64-7.57-1.67-14.67-1.72-21.75-.05-7.28-3.32-14.24-4.24-21.76ZM804.29,432.94c.49,1.27.54,2.5-1.33,3.28-.93-1.19-1.16-2.42-.21-3.57.43-.51,1.29-.34,1.54.29Z"/><path class="cls-3" d="M200.87,181.19c.93,1.36,3.5,5.28,4.2,6.65l-16.01,16.59-.98-.94c2.76-3.28,2.83-3.82-.15-6.69l-13.36-12.89c-2.96-2.85-3.4-2.81-6.46-.01l-1.02-.99,9.4-9.74,1.02.99c-2.55,3.02-2.69,3.53.29,6.41l13.25,12.78c1.86,1.8,2.68,2.26,3.67,1.92,1.05-.34,2.3-1.5,3.67-2.91,1.83-1.9,2.85-3.38,2.76-5.05,0-1.3-.47-3.05-1.52-5.23l1.25-.88Z"/><path class="cls-3" d="M207.82,185.33l-.92-1c2.8-2.97,2.92-3.48.16-6.48l-12.64-13.74c-2.78-3.03-3.3-2.95-6.47-.38l-.96-1.05,10.03-9.23.96,1.05c-2.8,2.93-2.92,3.44-.14,6.46l12.64,13.74c2.76,3,3.28,2.92,6.45.4l.92,1-10.03,9.23Z"/><path class="cls-3" d="M227.56,130.26c-2.44,2.4-2.67,3.24-1.5,7.86.85,3.26,4.12,15.71,7.21,25.79l-1.33,1.06c-8.04-4.67-17.72-9.99-24.11-13.5-3.38-1.82-4.33-1.68-6.82.02l-.91-1.14,9.95-7.94.89,1.11c-2.62,2.55-2.39,2.9-.46,4.09,3.19,1.8,11.87,6.67,19.09,10.63l.05-.04c-1.85-6.71-4.5-15.65-6.02-20.03-.95-2.8-1.46-3.01-4.93-.82l-.89-1.11,8.9-7.11.89,1.11Z"/><path class="cls-3" d="M254.9,110.68c5.46-3.29,10.29-4.73,14.38-3.96,3.3.69,6.64,2.72,8.93,6.52,2.89,4.79,3.05,9.65,1.15,14.05-1.9,4.28-5.64,7.98-10.93,11.17l-10.64,6.42-.7-1.16c3.51-2.46,3.73-2.93,1.64-6.39l-9.7-16.07c-2.11-3.49-2.58-3.43-6.02-1.7l-.75-1.25,12.64-7.63ZM262.52,134.55c1.94,3.21,3.85,3.08,6.99,1.18,7.98-4.81,8.41-12.75,4.57-19.12-2.53-4.18-6.29-6.6-10.58-6.61-2.74-.08-5.68.86-8.74,2.71-1.92,1.16-2.81,2.07-3.1,2.62-.23.52-.07,1.1.88,2.68l9.98,16.54Z"/><path class="cls-3" d="M309.15,107.85c.49,1.74,1.55,6.09,1.83,7.65l-21.98,10.85-.6-1.22c3.9-2.29,4.09-2.88,2.37-6.37l-8.2-16.63c-1.92-3.89-2.36-3.81-5.98-2.39l-.63-1.28,20.31-10.03c.6,1.07,2.17,3.8,3.53,6.09l-1.29.85c-1.29-1.56-2.26-2.31-3.29-2.96-1.12-.6-2.49-.29-5.57,1.24l-3.33,1.64c-1.47.72-1.5.89-.87,2.16l4.69,9.52,4.1-2.03c4.01-1.98,4.14-2.48,3.29-5.63l1.35-.67,4.11,8.33-1.35.67c-2.16-2.79-2.6-2.86-6.53-.93l-4.1,2.03,3.85,7.8c.99,2,1.7,2.84,2.8,2.95,1.11.06,2.79-.76,4.83-1.77,3.26-1.61,4.47-2.57,4.94-4.17.34-1.28.44-3.18.26-5.21l1.46-.51Z"/><path class="cls-3" d="M342.35,103.13c-.56.22-1.1.41-1.68.57-3.82,1.32-6.13,1.13-9.43-.89-2.44-1.5-5.03-3.56-7.26-5.1-1.34-.93-2.36-1.14-4.75-.19l-1.3.52,2.74,6.85c1.48,3.69,2.05,3.85,5.89,2.66l.5,1.26-12.56,5.03-.51-1.26c3.63-1.8,3.93-2.31,2.46-6l-6.98-17.42c-1.5-3.75-2-3.83-5.7-2.63l-.53-1.32,11.88-4.76c3.5-1.41,5.92-1.92,8.15-1.49,2.35.38,4.31,1.86,5.38,4.54,1.53,3.81-.1,7.12-2.88,9.8,1.38,1.12,4.43,3.24,6.63,4.7,2.6,1.64,4.09,2.47,5.61,3.12,1.7.82,2.91.89,4.06.71l.28,1.32ZM319.42,95.74c2.33-.93,3.73-1.91,4.55-3.29,1.24-2.03,1.27-4.03.32-6.4-1.89-4.71-5.78-5.18-9.22-3.8-1.4.56-2.07,1.04-2.31,1.42-.21.36-.2.95.26,2.09l4.33,10.81,2.08-.83Z"/><path class="cls-3" d="M384.37,90.96c-.58.16-1.14.28-1.73.37-3.95.88-6.22.43-9.26-1.96-2.25-1.77-4.58-4.11-6.63-5.9-1.23-1.07-2.22-1.41-4.7-.73l-1.35.37,1.94,7.12c1.05,3.84,1.59,4.06,5.54,3.31l.36,1.31-13.05,3.56-.36-1.31c3.81-1.38,4.17-1.84,3.12-5.68l-4.94-18.1c-1.07-3.9-1.55-4.04-5.36-3.26l-.37-1.37,12.34-3.37c3.64-1,6.1-1.23,8.26-.55,2.29.65,4.07,2.34,4.83,5.12,1.08,3.96-.91,7.06-3.98,9.4,1.25,1.27,4.03,3.73,6.05,5.42,2.4,1.93,3.78,2.92,5.21,3.74,1.59,1.01,2.79,1.22,3.96,1.17l.12,1.34ZM362.43,80.99c2.42-.66,3.92-1.48,4.9-2.75,1.46-1.88,1.71-3.86,1.04-6.32-1.34-4.9-5.15-5.8-8.73-4.83-1.45.4-2.17.79-2.46,1.14-.25.34-.3.92.02,2.11l3.07,11.23,2.16-.59Z"/><path class="cls-3" d="M409.19,78.05c0,1.81-.12,6.29-.26,7.86l-24.08,4.63-.26-1.33c4.37-1.17,4.71-1.7,3.97-5.51l-3.5-18.21c-.82-4.26-1.27-4.3-5.14-3.89l-.27-1.4,22.24-4.28c.3,1.19,1.09,4.24,1.79,6.81l-1.47.48c-.83-1.85-1.57-2.83-2.38-3.73-.92-.88-2.32-.94-5.7-.29l-3.64.7c-1.61.31-1.68.46-1.41,1.85l2.01,10.42,4.49-.87c4.4-.85,4.65-1.29,4.67-4.56l1.48-.28,1.76,9.12-1.48.28c-1.34-3.27-1.75-3.45-6.05-2.63l-4.5.87,1.64,8.55c.42,2.19.89,3.19,1.92,3.59,1.05.36,2.89,0,5.12-.43,3.58-.69,4.99-1.29,5.87-2.71.66-1.15,1.27-2.95,1.63-4.96l1.54-.1Z"/><path class="cls-3" d="M424.29,52.96c6.34-.67,11.33.07,14.71,2.51,2.7,2.02,4.86,5.28,5.33,9.68.59,5.57-1.32,10.03-4.91,13.21-3.54,3.07-8.49,4.83-14.64,5.49l-12.36,1.31-.14-1.35c4.22-.74,4.62-1.08,4.2-5.1l-1.98-18.66c-.43-4.05-.88-4.2-4.73-4.09l-.15-1.45,14.68-1.55ZM421.08,77.8c.4,3.73,2.18,4.42,5.84,4.04,9.27-.98,13.03-7.98,12.24-15.38-.52-4.86-2.9-8.64-6.79-10.47-2.45-1.24-5.52-1.63-9.07-1.25-2.23.24-3.42.69-3.92,1.07-.43.37-.54.97-.34,2.8l2.04,19.21Z"/><path class="cls-3" d="M474.61,73.31c-.29,1.79-1.16,6.18-1.56,7.71l-24.51.56-.03-1.36c4.5-.43,4.92-.89,4.83-4.77l-.43-18.54c-.1-4.33-.54-4.45-4.42-4.69l-.03-1.42,22.64-.52c.1,1.23.37,4.36.63,7.01l-1.53.23c-.51-1.96-1.07-3.05-1.73-4.07-.76-1.02-2.13-1.31-5.57-1.23l-3.71.08c-1.64.04-1.73.17-1.7,1.59l.24,10.61,4.58-.11c4.47-.1,4.8-.5,5.36-3.72l1.5-.04.21,9.29-1.5.04c-.78-3.45-1.16-3.7-5.53-3.6l-4.57.11.2,8.7c.05,2.23.34,3.29,1.29,3.86.98.53,2.85.48,5.12.43,3.64-.08,5.14-.44,6.24-1.7.85-1.02,1.74-2.69,2.43-4.62l1.54.16Z"/><path class="cls-3" d="M495.37,58.53c-.73-3.08-2.12-6.57-6.33-6.75-3.74-.16-5.62,2.31-5.73,4.9-.14,3.33,2.09,5.05,6.08,7.13,4.15,2.19,8.46,4.61,8.23,9.81-.22,5.08-4.87,8.92-11.68,8.63-2.07-.09-3.72-.52-4.97-.99-1.25-.44-1.93-.86-2.43-1.11-.29-.95-.84-5.28-1.04-7.59l1.52-.36c.7,3.04,2.92,8.09,8.03,8.32,3.64.16,5.87-1.92,6.01-5.31.15-3.43-2.45-5.16-6.17-7.26-3.4-1.83-8.07-4.4-7.84-9.6.21-4.72,4.31-8.46,10.82-8.18,2.37.1,4.58.75,6.42,1.41.13,1.69.28,3.64.58,6.76l-1.51.19Z"/><path class="cls-3" d="M503.95,76.25c1.83.16,4.52,2.35,4.23,5.67-.34,3.8-4.11,5.58-7.42,6.17l-.4-1.5c2.58-.75,4.12-1.91,4.28-3.68.15-1.71-1.11-2.96-2.94-3.54-.23-.02-.56-.47-.49-1.31.11-1.22,1.41-1.92,2.67-1.81h.07Z"/><path class="cls-3" d="M545.47,64.66c-.36-3.14-1.31-6.78-5.46-7.47-3.69-.62-5.86,1.62-6.28,4.17-.55,3.29,1.46,5.26,5.17,7.82,3.85,2.68,7.84,5.61,6.98,10.75-.83,5.01-5.91,8.27-12.64,7.15-2.04-.34-3.63-.97-4.82-1.59-1.19-.59-1.82-1.09-2.27-1.4-.17-.98-.19-5.35-.11-7.66l1.55-.17c.33,3.11,1.92,8.39,6.96,9.23,3.59.6,6.06-1.19,6.61-4.54.56-3.38-1.81-5.42-5.24-7.96-3.15-2.23-7.47-5.35-6.62-10.49.78-4.66,5.31-7.88,11.73-6.8,2.34.39,4.46,1.3,6.21,2.18-.08,1.69-.17,3.65-.25,6.78h-1.53Z"/><path class="cls-3" d="M570.27,94.06c-2.68-4.79-5.54-10.01-8.78-16.06-.83-1.59-1.43-1.93-2.31-2.01l-2.02,8.6c-.96,4.06-.59,4.55,3.44,5.79l-.31,1.32-13.14-3.09.31-1.32c3.81.6,4.32.32,5.27-3.74l4.19-17.79c.98-4.19.63-4.57-3.18-5.73l.33-1.39,12.91,3.04-.33,1.39c-3.8-.63-4.33-.42-5.31,3.74l-1.87,7.94c1.2.02,2.3-.46,4.06-1.37,3.44-1.95,7.3-4.2,9.83-6.06,1.86-1.32,1.91-1.84-.3-2.66l-1.03-.31.33-1.39,12,2.82-.33,1.38c-3.72-.54-5.14-.34-8.79,1.49-2.46,1.28-6.52,3.65-10.33,5.84,2.59,5.16,6.48,12,8.5,15.36,1.9,3.17,2.85,3.93,5.06,4.75l-.31,1.32-7.9-1.86Z"/><path class="cls-3" d="M597.67,102.44l.43-1.29c3.08.57,3.62.31,3.59-1.71-.08-2-.19-4.53-.36-7.44l-10.18-3.36c-1.47,1.8-2.68,3.34-3.88,4.92-1.92,2.4-1.71,3.05,1.75,4.6l-.43,1.29-10.47-3.45.43-1.29c3.23.55,3.99.47,6.99-2.97l17.7-20.16,1.78.14c.42,8.96.82,17.96,1.36,26.89.21,4.47.72,5.18,3.69,6.5l-.43,1.29-11.99-3.96ZM600.84,77.18l-.1-.03c-2.75,3.21-5.51,6.56-8.13,9.72l8.69,2.87-.46-12.56Z"/><path class="cls-3" d="M637.31,109.82c-.93,1.36-3.65,5.17-4.67,6.32l-21.26-8.9.53-1.25c4.06,1.38,4.58,1.25,6.18-2.57l7.17-17.13c1.59-3.79,1.39-4.19-2.33-6.03l.55-1.31,12.48,5.23-.55,1.31c-3.74-1.28-4.27-1.23-5.87,2.6l-7.11,16.99c-1,2.39-1.13,3.31-.46,4.12.69.85,2.23,1.6,4.05,2.36,2.43,1.02,4.18,1.43,5.7.74,1.21-.47,2.68-1.55,4.32-3.31l1.27.85Z"/><path class="cls-3" d="M673.04,128.4c-1.07,1.26-4.15,4.78-5.29,5.82l-20.25-11,.65-1.19c3.89,1.79,4.43,1.71,6.41-1.93l8.87-16.32c1.96-3.61,1.81-4.03-1.71-6.23l.68-1.25,11.88,6.46-.68,1.25c-3.59-1.65-4.12-1.65-6.1,1.99l-8.79,16.18c-1.24,2.27-1.46,3.18-.87,4.05.6.92,2.05,1.82,3.79,2.76,2.32,1.26,4.01,1.85,5.6,1.31,1.25-.35,2.82-1.27,4.63-2.86l1.18.97Z"/><path class="cls-3" d="M696.8,143.47c-1.24,1.32-4.41,4.48-5.59,5.53l-20.67-13.2.73-1.14c3.98,2.15,4.59,2.01,6.68-1.27l9.99-15.63c2.33-3.65,2.04-4-1.05-6.36l.77-1.2,19.09,12.19c-.61,1.07-2.13,3.83-3.39,6.17l-1.4-.66c.67-1.92.81-3.13.83-4.34-.06-1.27-1.04-2.28-3.94-4.13l-3.12-2c-1.38-.88-1.53-.83-2.3.37l-5.71,8.95,3.86,2.46c3.77,2.41,4.26,2.26,6.52-.1l1.27.81-5,7.83-1.27-.81c1.27-3.3,1.1-3.71-2.59-6.07l-3.86-2.46-4.69,7.34c-1.2,1.88-1.55,2.93-1.08,3.92.52.99,2.1,1.99,4.01,3.21,3.07,1.96,4.51,2.5,6.13,2.07,1.27-.38,2.95-1.27,4.6-2.48l1.19.99Z"/><path class="cls-3" d="M738.02,147.26c-2.93-1.77-3.8-1.78-7.99.48-2.95,1.62-14.21,7.87-23.22,13.34l-1.36-1.03c2.55-8.95,5.32-19.64,7.15-26.7.93-3.72.56-4.61-1.7-6.61l.88-1.16,10.15,7.69-.86,1.13c-3.12-1.92-3.4-1.6-4.07.57-.96,3.54-3.55,13.15-5.61,21.13l.05.04c6.05-3.45,14.06-8.22,17.93-10.78,2.48-1.61,2.56-2.16-.42-4.98l.86-1.13,9.08,6.88-.86,1.13Z"/><path class="cls-3" d="M745.96,183.5c-1.44,1.1-5.07,3.71-6.41,4.55l-18.27-16.36.91-1.01c3.57,2.77,4.2,2.72,6.79-.17l12.37-13.81c2.89-3.23,2.66-3.62-.02-6.44l.95-1.06,16.87,15.11c-.77.96-2.71,3.43-4.33,5.54l-1.27-.88c.97-1.78,1.3-2.96,1.52-4.15.14-1.26-.66-2.42-3.22-4.71l-2.76-2.47c-1.22-1.09-1.38-1.06-2.33,0l-7.08,7.91,3.41,3.05c3.33,2.99,3.84,2.92,6.45.96l1.12,1-6.2,6.92-1.12-1c1.79-3.05,1.69-3.48-1.57-6.4l-3.41-3.05-5.8,6.48c-1.49,1.66-2,2.64-1.7,3.69.36,1.06,1.75,2.3,3.44,3.82,2.71,2.43,4.05,3.19,5.71,3.03,1.31-.17,3.11-.77,4.93-1.71l1.02,1.17Z"/><path class="cls-3" d="M771.24,186.94c1.57-2.75,2.95-6.24,0-9.25-2.62-2.68-5.68-2.16-7.53-.35-2.38,2.33-1.93,5.11-.45,9.36,1.53,4.44,3.02,9.15-.71,12.79-3.63,3.55-9.65,3.17-14.42-1.7-1.45-1.48-2.36-2.92-2.95-4.13-.61-1.18-.82-1.95-1.01-2.47.44-.9,3-4.43,4.44-6.25l1.35.78c-1.57,2.7-3.41,7.9.17,11.56,2.54,2.6,5.59,2.62,8.02.25,2.45-2.4,1.74-5.44.47-9.52-1.22-3.66-2.87-8.73.85-12.37,3.38-3.3,8.93-3.22,13.49,1.44,1.66,1.7,2.83,3.68,3.72,5.43-1.06,1.32-2.29,2.84-4.21,5.32l-1.24-.89Z"/><path class="cls-3" d="M503.03,503.62v4.72h1.32l.27-.75-1.59-3.97ZM382.69,494.67v13.67h1.32v-13.67h-1.32ZM382.69,494.67v13.67h1.32v-13.67h-1.32Z"/><path class="cls-3" d="M647.02,362.89v3.28h-2.95c-4.81,0-9.95,1.59-15.42,4.76-5.47,3.17-9.95,8.48-13.45,15.91h-.06l-78.67,176.49c-2.41,5.46-4.43,10.16-6.07,14.1-1.64,3.94-3.06,7.77-4.26,11.48-1.21,3.72-1.81,6.45-1.81,8.2h-2.95l-38.87-88.77h-98.5v-13.67h63.04c10.67,0,20-1.14,27.98-3.42l-45.72-104.41h-.11c-3.28-7.43-7.66-12.74-13.12-15.91-5.47-3.17-10.72-4.76-15.74-4.76h-2.63v-3.28h73.81v3.28h-2.95c-4.16,0-7.82,1.76-10.99,5.25-3.18,3.5-3.56,8.53-1.15,15.09h-.21l38.14,95.42c5.77-4.13,10.72-9.13,14.84-15.03,6.17-8.81,11.6-18.8,16.31-29.97h4.41l-25.3,70.66-1.59-3.97v4.72h1.32l.27-.75,20.32,50.86,72.28-174.16c1.55-5.49.87-9.78-2.03-12.87-3.28-3.49-7-5.25-11.15-5.25h-2.95v-3.28h65.93Z"/><path class="cls-3" d="M384.01,231.96v262.71h-1.32v13.67h-61.27v-4.41h5.73c7.64,0,14.17-2.72,19.62-8.16,5.43-5.43,8.3-11.97,8.59-19.61v-244.2c-.29-7.64-3.16-14.18-8.59-19.62-5.45-5.43-11.98-8.15-19.62-8.15h-5.73v-4.41h96.53v4.41h-5.73c-7.64,0-14.18,2.72-19.61,8.15-5.44,5.44-8.31,11.98-8.6,19.62Z"/><path class="cls-3" d="M503.03,503.62v4.72h1.32l.27-.75-1.59-3.97Z"/></g></svg>